<?xml version="1.0" encoding="utf-8"?>
<!-- Svg Vector Icons : http://www.onlinewebfonts.com/icon -->
<!DOCTYPE svg PUBLIC "-//W3C//DTD SVG 1.1//EN" "http://www.w3.org/Graphics/SVG/1.1/DTD/svg11.dtd">
<svg version="1.1" xmlns="http://www.w3.org/2000/svg" xmlns:xlink="http://www.w3.org/1999/xlink" x="0px" y="0px" viewBox="0 0 1000 1000" enable-background="new 0 0 1000 1000" xml:space="preserve">
<metadata> Svg Vector Icons : http://www.onlinewebfonts.com/icon </metadata>
<g><path d="M775.6,585.5c-26.2,0-51.9-4.8-76-14.1c-55.4,48.3-125.9,75.3-199.6,75.3c-73.7,0-144.2-27-199.6-75.3c-24.2,9.3-49.8,14.1-76,14.1C106.2,585.5,10,489.3,10,371.1c0-118.2,96.2-214.4,214.4-214.4c10.2,0,20.2,0.7,30.2,2.2C311.8,81,402,34.3,500,34.3c98,0,188.2,46.7,245.4,124.7c10-1.4,20-2.2,30.2-2.2c118.2,0,214.4,96.2,214.4,214.4C990,489.3,893.8,585.5,775.6,585.5z M741.1,200.8c-8.6,0-17.2,0.6-25.7,1.8C666.8,137.2,590.4,83.3,507.1,83.3c-83.3,0-178.1,58.3-226.8,123.7c-8.5-1.2-17-1.8-25.7-1.8c-100.5,0-195.5,61.8-195.5,161s87,171,187.4,171c22.3,0,44.1-4,64.6-11.8c47.1,40.6,126.2,72.4,188.9,72.4c62.7,0,141.5-30.5,188.6-71.1c20.5,7.8,42.4,11.8,64.6,11.8c100.5,0,187.9-73,187.9-172.3C941.1,267,841.6,200.8,741.1,200.8z M316.3,820.9c0,33.9-27.4,61.3-61.3,61.3s-61.3-27.4-61.3-61.3c0-33.9,61.3-122.5,61.3-122.5S316.3,787,316.3,820.9z M255,842.8c13.5,0,24.5-14.6,24.5-32.7S255,744.8,255,744.8s-24.5,47.3-24.5,65.3S241.5,842.8,255,842.8z M563.2,904.5c0,33.9-27.4,61.3-61.3,61.3c-33.9,0-61.3-27.4-61.3-61.3S501.9,782,501.9,782S563.2,870.6,563.2,904.5z M475.5,908.1c0,18.1,11,32.7,24.5,32.7s24.5-14.6,24.5-32.7c0-18.1-24.5-65.3-24.5-65.3S475.5,890,475.5,908.1z M806.3,843.2c0,33.9-27.4,61.3-61.3,61.3s-61.3-27.4-61.3-61.3S745,720.7,745,720.7S806.3,809.4,806.3,843.2z M745,867.3c13.5,0,24.5-14.6,24.5-32.7S745,769.3,745,769.3s-24.5,47.3-24.5,65.3S731.5,867.3,745,867.3z"/></g>
</svg>