<?xml version="1.0" encoding="utf-8"?>
<!-- Svg Vector Icons : http://www.onlinewebfonts.com/icon -->
<!DOCTYPE svg PUBLIC "-//W3C//DTD SVG 1.1//EN" "http://www.w3.org/Graphics/SVG/1.1/DTD/svg11.dtd">
<svg version="1.1" xmlns="http://www.w3.org/2000/svg" xmlns:xlink="http://www.w3.org/1999/xlink" x="0px" y="0px" viewBox="0 0 1000 1000" enable-background="new 0 0 1000 1000" xml:space="preserve">
<metadata> Svg Vector Icons : http://www.onlinewebfonts.com/icon </metadata>
<g><path d="M550.7,288.7c0,21.8,0,42.9,0,67.2c36.5,0,71.5,0,106.5,0c9.3,0,18.7-0.5,28,0.4c19,1.9,30,14.8,29.5,33c-0.6,19-11,29.6-31.5,29.9c-37.3,0.6-74.7,0.9-112,0c-16.9-0.4-23.3,5.9-22.3,22.5c0.9,14.8,0.2,29.7,0.2,47c45.2,0,86.7,0,128.3,0c25,0,37.1,10,37.5,30.8c0.4,21-11.7,32-36.7,32.2c-36.6,0.3-73.3,0.6-109.9-0.1c-13.9-0.3-19.5,4.6-19.2,18.5c0.4,24.9-0.6,48.5,14.4,71.9c18.4,28.7,7.1,67.4-20.1,88.2c-28.1,21.6-67.5,20.4-93.1-2.9c-25.3-22.9-30.1-63.1-13.5-92.8c6.9-12.3,12.1-27.4,12.2-41.3c0.9-133.6,1.3-267.2,0-400.7c-0.3-29.2,16.4-50.6,47.3-51.7c32.7-1.2,50.4,15.2,53.3,48.5c2.8,32.5,2.8,32.5,36.5,32.4c30.2,0,60.3-0.2,90.5,0c24.6,0.2,37.7,11,38.2,31c0.5,20.6-13.7,34.2-38.1,34.5c-38,0.4-76.1-0.2-114.1-0.3C559,287.2,555.5,288.1,550.7,288.7z"/><path d="M763,858.9c-29,2.1-50.1-12.8-70.5-29c-37.5-29.8-40.6-30.1-80.7-4c-9,5.9-17.9,12-27.2,17.4c-28.9,16.6-57.2,16.5-84.6-3.7c-11-8.1-22.4-15.5-33-24.2c-13.4-10.9-26-10.2-38.9,0.2c-9.5,7.7-18.7,15.6-28.2,23.1c-33.5,26.2-70.7,27-105.1,1.9c-12.1-8.9-23.5-18.7-35.3-28.1c-17.2-13.6-34.5-16.5-52.6-1.4c-8.2,6.9-17,13.3-26.1,19c-14.7,9.2-29.4,8.6-40.4-5.4c-10.8-13.9-9.8-30.6,4.3-40.2c24-16.4,48.9-33.8,76-42.6c29.2-9.5,55.8,8.1,78.9,25.8c45.4,34.6,45.1,35.1,89.1,2.1c39-29.2,75.4-29.7,114.7-1.7c4.7,3.3,9.3,6.7,13.9,10c24,17.6,31.7,17.7,56,1.9c13.2-8.6,26.3-17.5,40.1-25.1c30.8-16.9,60.7-14.1,88.8,6.5c13.3,9.7,25.9,20.3,38.9,30.4c13.7,10.7,27.3,11.2,41.3,0.2c5.6-4.4,12-7.8,17.9-11.8c15.2-10.6,28.6-7.4,39.7,6.1c9.6,11.7,6.8,32.3-6.3,42.2C812.5,844.4,791,860.7,763,858.9z"/><path d="M140.3,599.7c27.6-2.9,54.6,16.3,83.1,30.7c15.3,7.7,30.7,15.4,45.8,23.4c26.5,14.1,49.6,8,70.9-11.1c9.6-8.6,19.6-16.8,29.3-25.2c14-12.1,28.3-10.5,40.2,1.7c12.1,12.3,13.1,29.4,1,40.8c-57.3,54.5-91.4,85.3-180.3,42.3c-21.3-10.3-41.3-23-62.7-33.1C131,652,109.5,656,79.9,683.5c-7.9,7.3-15.3,15.2-23.8,21.7c-13.4,10.1-26.3,5.4-36.7-5C9.2,689.9,6.1,676.1,16.1,665C47.4,629.8,80.9,597.5,140.3,599.7z"/><path d="M859,677.9c-18.2,7.2-39,12.1-56,22.8c-82.9,52.5-152.4,19.5-201.2-25.9c-16.9-15.7-20.3-35.6-8-48.8c12.5-13.4,31.2-11.2,49.3,4.2c13,11,26.3,22.6,41.5,29.8c23.7,11.1,47.7,9.9,72.1-3c24.5-12.9,50.2-24.3,76.6-32.4c61.1-18.6,122,28.1,150.1,61.9c10.8,13,7.2,25.9-3.8,36.3c-12,11.3-26.2,10.9-39.3,1.7c-14.6-10.2-27.8-22.7-42.9-31.9C886.8,686.1,873.8,683.4,859,677.9z"/></g>
</svg>