<?xml version="1.0" encoding="utf-8"?>
<!-- Svg Vector Icons : http://www.onlinewebfonts.com/icon -->
<!DOCTYPE svg PUBLIC "-//W3C//DTD SVG 1.1//EN" "http://www.w3.org/Graphics/SVG/1.1/DTD/svg11.dtd">
<svg version="1.1" xmlns="http://www.w3.org/2000/svg" xmlns:xlink="http://www.w3.org/1999/xlink" x="0px" y="0px" viewBox="0 0 1000 1000" enable-background="new 0 0 1000 1000" xml:space="preserve">
<metadata> Svg Vector Icons : http://www.onlinewebfonts.com/icon </metadata>
<g><path d="M942.3,626.7c-34.8-3.3-48.8-14.8-69.6-38.5c-20.7-23.7-34.4-43.9-38.9-70.5c-4.4-26.6,7.7-56.4,25.5-57.7c30-2.2,21.1,28.9,5.5,30c1.1,6.7,28.9,11.1,43.3-6.7c14.4-17.8-2.2-51.1-35.5-58.8c0,0-27.8-7.8-51.1-7.8c-23.3,0-54.4-3.3-73.3-31.1s-17.8-54.4-5.6-68.8c12.2-14.4,25.5-15.5,31.1-4.4c5.6,11.1-8.9,15.5-8.9,15.5s31.1,11.1,37.8-15.5c6.7-26.6-27.8-41.5-52.2-44.4c-47.4-5.7-108.8,8.9-163.2,68.8c-54.4,60-137.7,145.4-137.7,145.4s-40-28.3-45.5-61.6c-5.6-33.3,7.8-48.3,20-43.9c12.2,4.4,1.1,21.1,1.1,21.1s31.1,8.9,32.2-14.4c1.1-23.3-23.3-34.4-46.6-36.6c-23.3-2.2-87.7,0-135.5,46.6c-47.7,46.6-85.5,121-134.3,157.7c-48.9,36.6-56.6,34.4-68.8,40c-12.2,5.6-62.2,30-62.2,30s63.3-8.9,104.4-4.4C227.6,628.7,292,693.1,292,693.1s-46.6-58.8-97.7-77.7c-51.1-18.9-75.5-21.1-75.5-21.1s61.1-48.9,77.7-71.1c16.7-22.2,81.1-98.8,81.1-98.8s-1.1,33.3,3.3,55.5c4.4,22.2,13.3,64.4,31.1,65.5c17.8,1.1-3.3-24.4-13.3-42.2c0,0-14.4-31.1-12.2-61.1c2.2-30,4.4-28.9,4.4-28.9l7.8-5.6c0,0-12.2,53.3,6.7,88.8c18.9,35.5,47.7,65.5,47.7,65.5s-54.4-12.2-82.2,1.1c-27.8,13.3-31.8,28.8-28.9,41.1c3.7,15.4,32.2,23.3,32.2,23.3s-12.2-17.8-3.3-33.3c8.9-15.5,61.1-15.5,102.1,0c41.1,15.5,118.8,63.3,157.7,68.8c38.9,5.6,63.3,4.4,79.9,0c16.7-4.4,32.2-30,32.2-30s-21.1,13.3-52.2,12.2s-57.7-8.9-57.7-8.9s43.7,0.6,93.3-47.7c24.1-23.4,36.6-60,46.6-73.3c17.8-23.5,30-27.8,30-27.8s-4.4,35.5-5.6,53.3c-1.1,17.8-6.7,92.2,14.4,89.9c21.1-2.2-9.5-34.5-5.6-89.9c3.7-52.4,26.6-73.3,26.6-73.3s-11.1,60-3.3,99.9c7.8,40,37.8,69.9,37.8,69.9s-24.4,10-53.3,27.8c-28.9,17.8-58.8,34.4-85.5,42.2c-26.6,7.8-88.8,13.9-88.8,13.9s53.3,22.2,99.2,5.9c45.9-16.3,101.4-60.3,137.7-74c62.1-23.4,82.9-16.3,82.9-16.3s-25.2,8.9-41.5,25.2c-16.3,16.3-37,40-37,40s74-47.4,91.8-50.3c17.8-3,63.7-16.3,79.9,7.4c16.3,23.7,0,40,0,40s32.6-5.9,37-32.6C994.1,640,955.6,627.9,942.3,626.7z M550.7,609.8c-35.5,30-68.8,6.7-101-7.8c-32.2-14.4-77.7-52.2-88.8-66.6c-38.5-50-27.8-103.3-21.1-118.8c6.7-15.5,30-33.3,31.1-12.2c1.1,21.1,17.8,35.5,35.5,58.8c17.8,23.3,89.9,73.3,89.9,73.3c-23.3,0-62.2-30-82.2-46.6c-20-16.7-38.9-48.9-45.5-47.7s-17.8,14.4-11.1,41.1c6.7,26.6,43.5,76.8,85.5,104.4c35.5,23.3,57.7,13.3,57.7,13.3s-14.4-8.9-25.5-13.3c-11.1-4.4-26.6-17.8-18.9-26.6c8.9-10.2,29.8-10.1,64.4,2.2c34.4,12.2,69.9,3.3,69.9,3.3S586.2,579.8,550.7,609.8z M589.6,538.8c-51.2,1.6-121-44.4-121-44.4s39.1-38.7,61.1-62.2c41.1-43.9,66.2-52.7,66.2-52.7s-11.8,40-3,81.6c8.4,39.3,16.7,63.3,28.9,57.7c12.2-5.6-21.8-53.5-22.9-93.5c-1.1-40,20.7-65.3,20.7-65.3s-16.3,41.6-5.6,85.5c6.1,24.8,25.5,61.1,25.5,61.1S624,537.7,589.6,538.8z M708.4,388c-8.3-12.8-6.7-35-8.9-35.5c-2.2-0.6-7.8,0-11.1,2.8c-3.3,2.8-11.1,8.3-16.7,40.5c-5.6,32.2,2.2,60,7.2,61.1c5,1.1,6.7-11.7,8.3-16.7c1.7-5,3.9-19.4,13.9-23.3c10-3.9,30,19,23.9,22.8c-16.7,10.3-59.4,46.6-59.4,46.6s-45-83,5-144.1c28.5-34.8,58.8-44.7,58.8-44.7s-18.3,47.2-10.5,73.8c7.8,26.6,33.9,49.4,38.9,54.4c-8.3,1.9-9.4,3.1-19.4,6.7C734.1,434,716.7,400.8,708.4,388z M821.6,582.6c-17.4-17.4-28.9-38.5-29.6-65.1c-0.6-21.8,8.1-40-1.5-40.7c-9.6-0.7-27.4,25.2-31.1,65.9c-3.7,40.7,17,61.4,28.9,62.2c11.8,0.7-16.3-38.5-3-40.7c3-0.5,15.5,13.3,27.4,25.9c11.8,12.6,40.7,28.9,40.7,28.9s-20.7,0.7-38.5,4.4c-12.4,2.6-36.3,8.1-36.3,8.1s-50.3-34.1-27.4-123.6c14.2-55.5,71.8-59.2,71.8-59.2s-20.7,41.5-14.1,82.9c6.7,41.4,63.7,85.1,63.7,85.1S856.4,617.4,821.6,582.6z"/><path d="M922.3,692.2c0,0,11.1-12.6,5.2-23.7c-5.9-11.1-29.6-8.9-51.1,0.7c-21.5,9.6-65.9,30.3-61.4,33.3c4.4,3,67.7-24.9,79.9-24.4C912.7,678.8,909,693.7,922.3,692.2z"/><path d="M314.6,608.5c10.4-11.8,50.3,0,74.8,14.1c38.8,22.4,49.6,40,47.4,41.5c-2.2,1.5-43.7-21.5-64.4-30.3c-18-7.7-32.6-11.8-43.7-8.9c-3.2,0.9-5.9,8.9-9.6,7.4C315.3,630.7,304.9,619.6,314.6,608.5z"/><path d="M211,682.9c5.9-1.5-25.2-38.5-75.5-45.9c-50.3-7.4-53.3,7.4-54.8,11.8c-1.5,4.4,9.5,16.7,26.6,11.8C148.8,648.9,205,684.4,211,682.9z"/></g>
</svg>