<svg xmlns="http://www.w3.org/2000/svg" width="100" height="100" viewBox="0 0 100 100">
    <defs>
        <linearGradient id="q3inv97zfa" x1="18.079%" x2="81.921%" y1="77.767%" y2="22.252%">
            <stop offset="0%" stop-color="#61ADFF" stop-opacity=".6"/>
            <stop offset="0%" stop-color="#61ADFF" stop-opacity=".6"/>
            <stop offset="11%" stop-color="#5DA9FF" stop-opacity=".73"/>
            <stop offset="23%" stop-color="#5AA6FF" stop-opacity=".83"/>
            <stop offset="36%" stop-color="#57A4FF" stop-opacity=".9"/>
            <stop offset="50%" stop-color="#55A2FF" stop-opacity=".96"/>
            <stop offset="68%" stop-color="#54A1FF" stop-opacity=".99"/>
            <stop offset="100%" stop-color="#54A1FF"/>
        </linearGradient>
        <linearGradient id="di9364xx0b" x1="21.179%" x2="86.547%" y1="65.326%" y2="9.264%">
            <stop offset="0%" stop-color="#61ADFF" stop-opacity=".6"/>
            <stop offset="0%" stop-color="#61ADFF" stop-opacity=".6"/>
            <stop offset="11%" stop-color="#5DA9FF" stop-opacity=".73"/>
            <stop offset="23%" stop-color="#5AA6FF" stop-opacity=".83"/>
            <stop offset="36%" stop-color="#57A4FF" stop-opacity=".9"/>
            <stop offset="50%" stop-color="#55A2FF" stop-opacity=".96"/>
            <stop offset="68%" stop-color="#54A1FF" stop-opacity=".99"/>
            <stop offset="100%" stop-color="#54A1FF"/>
        </linearGradient>
        <linearGradient id="lufcfevmdc" x1="11.774%" x2="170.706%" y1="5.384%" y2="-84.791%">
            <stop offset="0%" stop-color="#61ADFF" stop-opacity=".6"/>
            <stop offset="0%" stop-color="#61ADFF" stop-opacity=".6"/>
            <stop offset="100%" stop-color="#54A1FF"/>
        </linearGradient>
        <linearGradient id="vt0dngsy9d" x1="-24.662%" x2="62.751%" y1="11.142%" y2="64.279%">
            <stop offset="0%" stop-color="#E9E9ED"/>
            <stop offset="100%" stop-color="#DEDFE3"/>
        </linearGradient>
        <linearGradient id="q39rpko42e" x1="7.433%" x2="50.395%" y1="7.406%" y2="50.381%">
            <stop offset="0%" stop-color="#FFF"/>
            <stop offset="100%" stop-color="#FFF" stop-opacity="0"/>
        </linearGradient>
        <linearGradient id="ik1oo6wpzf" x1="7.173%" x2="39.43%" y1="7.173%" y2="39.43%">
            <stop offset="0%" stop-color="#FFF"/>
            <stop offset="100%" stop-color="#FFF" stop-opacity="0"/>
        </linearGradient>
        <linearGradient id="v8gsfxyp5g" x1="20.289%" x2="92.345%" y1="59.634%" y2=".946%">
            <stop offset="0%" stop-color="#61ADFF" stop-opacity=".6"/>
            <stop offset="100%" stop-color="#54A1FF"/>
        </linearGradient>
        <linearGradient id="cwtuuxgalh" x1="20.618%" x2="90.115%" y1="61.753%" y2="4.05%">
            <stop offset="0%" stop-color="#61ADFF" stop-opacity=".6"/>
            <stop offset="0%" stop-color="#61ADFF" stop-opacity=".6"/>
            <stop offset="11%" stop-color="#5DA9FF" stop-opacity=".73"/>
            <stop offset="23%" stop-color="#5AA6FF" stop-opacity=".83"/>
            <stop offset="36%" stop-color="#57A4FF" stop-opacity=".9"/>
            <stop offset="50%" stop-color="#55A2FF" stop-opacity=".96"/>
            <stop offset="68%" stop-color="#54A1FF" stop-opacity=".99"/>
            <stop offset="100%" stop-color="#54A1FF"/>
        </linearGradient>
        <linearGradient id="kmrcqbzfoi" x1="21.151%" x2="87.889%" y1="63.606%" y2="6.974%">
            <stop offset="0%" stop-color="#61ADFF" stop-opacity=".6"/>
            <stop offset="0%" stop-color="#61ADFF" stop-opacity=".6"/>
            <stop offset="11%" stop-color="#5DA9FF" stop-opacity=".73"/>
            <stop offset="23%" stop-color="#5AA6FF" stop-opacity=".83"/>
            <stop offset="36%" stop-color="#57A4FF" stop-opacity=".9"/>
            <stop offset="50%" stop-color="#55A2FF" stop-opacity=".96"/>
            <stop offset="68%" stop-color="#54A1FF" stop-opacity=".99"/>
            <stop offset="100%" stop-color="#54A1FF"/>
        </linearGradient>
        <linearGradient id="24m75ba6mj" x1="22.829%" x2="61.107%" y1="90.671%" y2="11.04%">
            <stop offset="0%" stop-color="#61ADFF" stop-opacity=".8"/>
            <stop offset="100%" stop-color="#54A1FF"/>
        </linearGradient>
    </defs>
    <g fill="none" fill-rule="evenodd">
        <g fill-rule="nonzero">
            <g transform="translate(-1706 -235) translate(1706 235)">
                <path fill="url(#q3inv97zfa)" d="M40.884 56.545c.468-.817 1.51-1.1 2.327-.632.786.45 1.078 1.433.68 2.235l-.048.091-17.051 29.773c-.468.817-1.51 1.1-2.327.632-.786-.45-1.078-1.433-.68-2.235l.048-.091 17.051-29.773z" opacity=".9"/>
                <path fill="url(#di9364xx0b)" d="M58.216 56.798c.476-.812 1.52-1.086 2.332-.61.783.458 1.065 1.443.66 2.24l-.05.092-17.437 29.807c-.475.812-1.52 1.086-2.332.61-.782-.458-1.065-1.443-.66-2.24l.05-.092 17.437-29.807z" opacity=".9"/>
                <path fill="url(#lufcfevmdc)" d="M56.226 74.959c.468-.817 1.51-1.1 2.326-.63.787.45 1.078 1.433.68 2.234l-.049.092-2.42 4.221c-.468.817-1.51 1.1-2.327.631-.786-.45-1.077-1.433-.68-2.235l.05-.091 2.42-4.222z"/>
                <path fill="url(#vt0dngsy9d)" d="M69.63 25.602h-.204c-3.77-8.96-12.906-14.451-22.588-13.578-9.682.874-17.687 7.911-19.793 17.402-9.095.779-15.915 8.66-15.38 17.773.511 8.971 8.17 15.87 17.159 15.87H69.63c6.883.293 13.373-3.212 16.902-9.129 3.53-5.917 3.53-13.293 0-19.21-3.53-5.917-10.019-9.421-16.902-9.128z"/>
                <path fill="url(#q39rpko42e)" d="M71.16 34.256c0 9.031-5.443 17.173-13.788 20.627-8.346 3.454-17.95 1.538-24.332-4.852-6.383-6.39-8.285-15.997-4.821-24.338 3.464-8.34 11.613-13.773 20.645-13.761 12.319.012 22.298 10.004 22.295 22.324z" opacity=".5"/>
                <circle cx="69.631" cy="44.335" r="18.733" fill="url(#ik1oo6wpzf)" opacity=".25"/>
                <path fill="url(#v8gsfxyp5g)" d="M70.817 49.686c.468-.816 1.51-1.099 2.326-.63.787.45 1.078 1.433.68 2.234l-.049.092-11.022 19.227c-.469.817-1.51 1.1-2.327.631-.786-.45-1.078-1.433-.68-2.235l.049-.091 11.023-19.228z"/>
                <path fill="url(#cwtuuxgalh)" d="M36.268 49.682c.47-.815 1.513-1.095 2.329-.624.785.453 1.073 1.437.673 2.237l-.05.091-12.795 22.165c-.47.815-1.513 1.095-2.328.624-.785-.453-1.074-1.437-.674-2.237l.05-.091 12.795-22.165z"/>
                <path fill="url(#kmrcqbzfoi)" d="M53.745 49.37c.471-.816 1.514-1.095 2.329-.625.785.454 1.073 1.437.673 2.237l-.05.092-14.863 25.744c-.47.815-1.513 1.095-2.328.624-.785-.453-1.073-1.437-.673-2.237l.049-.091 14.863-25.745z"/>
                <path fill="url(#24m75ba6mj)" d="M35.62 80.952c.482-.809 1.528-1.074 2.337-.593.78.464 1.054 1.451.643 2.246l-.05.09-3.761 6.319c-.482.809-1.528 1.074-2.337.593-.779-.464-1.054-1.451-.643-2.246l.05-.09 3.762-6.32z" opacity=".6"/>
            </g>
        </g>
    </g>
</svg>
